<svg width="35" height="17" viewBox="0 0 35 17" fill="none" xmlns="http://www.w3.org/2000/svg">
<path d="M32.1048 5.85394C33.7037 5.85394 34.9999 4.55776 34.9999 2.95883C34.9999 1.35991 33.7037 0.0637207 32.1048 0.0637207C30.5059 0.0637207 29.2097 1.35991 29.2097 2.95883C29.2097 4.55776 30.5059 5.85394 32.1048 5.85394Z" fill="white"/>
<path d="M6.64448 14.6077C9.61584 13.1548 12.5872 11.7033 15.5593 10.2504C16.529 11.6947 18.2663 11.8479 19.7177 11.1019C21.4849 10.1941 23.2541 9.28489 25.0199 8.37709C25.094 10.0373 25.1652 11.699 25.2372 13.3593C25.3291 15.4428 28.5591 15.3024 28.4672 13.2189C28.3696 10.9772 28.2734 8.73551 28.1751 6.49452C28.9239 5.5112 28.9446 3.97065 28.2948 2.96452C27.3307 1.476 25.5714 1.31211 24.1014 2.06599C21.5419 3.38137 18.9824 4.69603 16.4243 6.0107C16.1329 6.16033 15.8913 6.36697 15.6946 6.60853C12.0941 8.36854 8.49428 10.1286 4.89302 11.8893C3.02328 12.8021 4.79113 15.5126 6.64448 14.6077Z" fill="white"/>
<path d="M34.5468 15.0645H0V16.9363H34.5468V15.0645Z" fill="white"/>
</svg>
