<svg width="50" height="50" viewBox="0 0 17 35" fill="none" xmlns="http://www.w3.org/2000/svg">
<path d="M12.1253 5.7502C13.7132 5.7502 15.0004 4.46297 15.0004 2.8751C15.0004 1.28723 13.7132 0 12.1253 0C10.5374 0 9.25021 1.28723 9.25021 2.8751C9.25021 4.46297 10.5374 5.7502 12.1253 5.7502Z" fill="white"/>
<path d="M3.20486 8.50684C2.56471 8.79128 1.94988 9.08574 1.36921 9.37726C-0.389893 10.2606 1.15602 12.8931 2.9104 12.0127C3.01346 11.9614 3.11829 11.9143 3.22135 11.8643C3.16953 10.7536 3.14833 9.63108 3.20486 8.50684Z" fill="white"/>
<path d="M16.1028 8.50459C16.1958 7.97692 15.9903 7.43629 15.323 7.15008C12.7878 6.06117 9.88674 6.29614 7.12471 7.06822C7.1253 7.18011 7.12 7.29259 7.10233 7.40626C6.95864 8.33204 6.9286 9.13002 6.94686 10.0835L12.1258 9.89915C12.1258 9.89915 12.8514 10.09 12.3107 10.3479C11.5493 10.3815 6.52402 10.6235 6.52402 10.6235C6.46218 9.34556 6.45806 8.06526 6.6524 6.81145C6.95039 4.88627 4.00993 4.05943 3.70899 5.99992C3.31912 8.51224 3.50758 11.0034 3.65481 13.5275C3.71841 14.6341 4.91745 15.4927 5.951 14.8455C6.69598 14.3785 7.41387 13.8543 8.0982 13.2895L8.09584 14.276L8.07464 24.9148V33.354C8.07464 34.2627 8.73894 35 9.67355 35C10.607 35 11.3655 34.2627 11.3655 33.354V21.2918H12.859C12.859 24.118 12.859 30.5684 12.859 33.3952C12.859 35.3634 15.912 35.3634 15.912 33.3952C15.912 30.5684 15.912 27.7422 15.912 24.9172C16.5344 12.1718 16.5368 12.2101 16.1028 8.50459Z" fill="white"/>
</svg>
